<?xml version="1.0" encoding="UTF-8" standalone="no"?>
<svg
   xmlns:dc="http://purl.org/dc/elements/1.1/"
   xmlns:cc="http://creativecommons.org/ns#"
   xmlns:rdf="http://www.w3.org/1999/02/22-rdf-syntax-ns#"
   xmlns:svg="http://www.w3.org/2000/svg"
   xmlns="http://www.w3.org/2000/svg"
   xmlns:sodipodi="http://sodipodi.sourceforge.net/DTD/sodipodi-0.dtd"
   xmlns:inkscape="http://www.inkscape.org/namespaces/inkscape"
   id="Capa_1"
   enable-background="new 0 0 512.729 512.729"
   height="512"
   viewBox="0 0 512.729 512.729"
   width="512"
   version="1.1"
   sodipodi:docname="game-control.svg"
   inkscape:version="1.0 (4035a4fb49, 2020-05-01)">
  <metadata
     id="metadata23">
    <rdf:RDF>
      <cc:Work
         rdf:about="">
        <dc:format>image/svg+xml</dc:format>
        <dc:type
           rdf:resource="http://purl.org/dc/dcmitype/StillImage" />
      </cc:Work>
    </rdf:RDF>
  </metadata>
  <defs
     id="defs21" />
  <sodipodi:namedview
     inkscape:document-rotation="0"
     pagecolor="#ffffff"
     bordercolor="#666666"
     borderopacity="1"
     objecttolerance="10"
     gridtolerance="10"
     guidetolerance="10"
     inkscape:pageopacity="0"
     inkscape:pageshadow="2"
     inkscape:window-width="1920"
     inkscape:window-height="1001"
     id="namedview19"
     showgrid="false"
     inkscape:zoom="1.6210938"
     inkscape:cx="341.22489"
     inkscape:cy="231.3253"
     inkscape:window-x="-9"
     inkscape:window-y="-9"
     inkscape:window-maximized="1"
     inkscape:current-layer="Capa_1" />
  <g
     id="g16"
     style="fill:#000000;fill-opacity:1">
    <path
       d="m166.825 269.339h-15v-15c0-8.284-6.716-15-15-15s-15 6.716-15 15v15h-15c-8.284 0-15 6.716-15 15s6.716 15 15 15h15v15c0 8.284 6.716 15 15 15s15-6.716 15-15v-15h15c8.284 0 15-6.716 15-15s-6.716-15-15-15z"
       id="path2"
       style="fill:#000000;fill-opacity:1" />
    <path
       d="m211.825 314.339c0 8.284 6.716 15 15 15h60c8.284 0 15-6.716 15-15s-6.716-15-15-15h-60c-8.284 0-15 6.715-15 15z"
       id="path4"
       style="fill:#000000;fill-opacity:1" />
    <circle
       cx="376.825"
       cy="254.339"
       r="15"
       id="circle6"
       style="fill:#000000;fill-opacity:1" />
    <circle
       cx="376.825"
       cy="314.339"
       r="15"
       id="circle8"
       style="fill:#000000;fill-opacity:1" />
    <circle
       cx="406.825"
       cy="284.339"
       r="15"
       id="circle10"
       style="fill:#000000;fill-opacity:1" />
    <circle
       cx="346.825"
       cy="284.339"
       r="15"
       id="circle12"
       style="fill:#000000;fill-opacity:1" />
    <path
       d="m216.448 234.485c-9.552-22.752-27.537-54.175-73.116-54.175-105.095 0-142.41 212.222-142.41 255.129 0 56.8 31.873 76.953 59.167 76.953 48.004 0 99.636-82.067 124.543-123.054h144.388c24.708 40.66 76.954 122.932 123.518 123.043 31.047.617 60.191-23.354 60.191-76.942 0-18.038-28.12-255.129-142.41-255.129-45.578 0-63.564 31.422-73.116 54.174-4.99-10.107-13.667-18.078-24.261-22.156.477-7.871.78-18.4.183-29.876-3.656-70.308-38.916-111.392-138.983-92.872-83.97 15.268-115.05-21.426-100.931-69.97 2.351-7.912-2.135-16.243-10.044-18.631-7.932-2.394-16.302 2.094-18.695 10.025-19.052 63.096 22.182 128.603 135.071 108.087 87.289-15.995 108.221 15.744 103.41 92.438-11.612 3.772-21.167 12.143-26.505 22.956zm70.377 34.854c3.988-.001 17.142.003 18.724-.004 10.84-.066 13.652-8.858 15.916-14.708 9.722-25.109 19.491-44.316 48.854-44.316 76.369 0 111.926 186.457 112.41 225.129 0 25.137-5.259 43.176-30.089 46.942-7.787 0-38.176-8.346-102.263-115.73-2.707-4.535-7.6-7.313-12.881-7.313h-161.342c-5.282 0-10.174 2.778-12.88 7.313-21.709 36.375-65.798 107.75-103.186 115.741-8.77 0-29.167-4.575-29.167-46.928.348-27.835 32.209-225.155 112.411-225.155 29.362 0 39.132 19.207 48.854 44.317 3.152 8.142 5.831 14.652 15.922 14.707.025 0 .05.004.075.004h18.642c8.284 0 15-6.716 15-15 0-8.267 6.722-14.992 14.987-14.999.011 0 .021.001.032.001h.008c8.259.015 14.973 6.737 14.973 14.999 0 8.284 6.716 15 15 15z"
       id="path14"
       style="fill:#000000;fill-opacity:1" />
  </g>
</svg>
