<?xml version="1.0" encoding="UTF-8" standalone="no"?>
<svg
   xmlns:dc="http://purl.org/dc/elements/1.1/"
   xmlns:cc="http://creativecommons.org/ns#"
   xmlns:rdf="http://www.w3.org/1999/02/22-rdf-syntax-ns#"
   xmlns:svg="http://www.w3.org/2000/svg"
   xmlns="http://www.w3.org/2000/svg"
   xmlns:sodipodi="http://sodipodi.sourceforge.net/DTD/sodipodi-0.dtd"
   xmlns:inkscape="http://www.inkscape.org/namespaces/inkscape"
   inkscape:version="1.0 (4035a4fb49, 2020-05-01)"
   sodipodi:docname="playstation-logotype.svg"
   xml:space="preserve"
   style="enable-background:new 0 0 106.726 106.726;"
   viewBox="0 0 106.726 106.726"
   y="0px"
   x="0px"
   id="Capa_1"
   version="1.1"><metadata
   id="metadata47"><rdf:RDF><cc:Work
       rdf:about=""><dc:format>image/svg+xml</dc:format><dc:type
         rdf:resource="http://purl.org/dc/dcmitype/StillImage" /></cc:Work></rdf:RDF></metadata><defs
   id="defs45" /><sodipodi:namedview
   inkscape:current-layer="Capa_1"
   inkscape:window-maximized="1"
   inkscape:window-y="-9"
   inkscape:window-x="-9"
   inkscape:cy="53.362999"
   inkscape:cx="53.362999"
   inkscape:zoom="7.7769242"
   showgrid="false"
   id="namedview43"
   inkscape:window-height="1001"
   inkscape:window-width="1920"
   inkscape:pageshadow="2"
   inkscape:pageopacity="0"
   guidetolerance="10"
   gridtolerance="10"
   objecttolerance="10"
   borderopacity="1"
   bordercolor="#666666"
   pagecolor="#ffffff" />
<g
   style="fill:#003791;fill-opacity:1"
   id="g10">
	<g
   style="fill:#003791;fill-opacity:1"
   id="g8">
		<path
   id="path2"
   d="M11.703,67.563l-3.6,1.4c-5.4,2.3-8.2,4.7-8.1,6.8c0.3,3.1,3.8,5.4,10.2,7.1    c8.3,2.2,16.7,2.7,25.4,1.4v-8.7l0,0l-6.9,2.6c-7.2,2.5-10.9,0.4-10.9,0.4c-1.1-0.7-1.6-2.4,1.4-3.5l3.8-1.4l12.6-4.5v-10.1    l-3.2,1.1L11.703,67.563z"
   style="fill:#003791;fill-opacity:1" />
		<path
   id="path4"
   d="M64.303,32.463v25.9c5.4,2.6,10.2,2.8,13.8,0.1c3.7-2.6,5.7-7.1,5.7-13.9c0-7.1-1.4-12.5-4.5-16.1    c-2.8-3.8-7.8-7-15.2-9.5c-9.2-3-17-5.6-23.2-6.9v77.5l16.7,5.1v-64.4C57.503,26.363,64.303,26.663,64.303,32.463z"
   style="fill:#003791;fill-opacity:1" />
		<path
   id="path6"
   d="M106.703,72.463c-0.1-2.7-3.3-4.8-9-6.7c-6.4-2.1-11.9-3.1-17.9-2.9c-5.5,0.1-12.1,1.9-18,3.8v9.9    l16.2-5.7c0,0,4.9-1.8,9.1-0.7c3.2,0.8,3,2.6-0.2,3.7l-3.7,1.5l-21.4,7.7v10.1l10-3.6l24-8.5l2.8-1.3    C104.403,77.663,107.003,75.363,106.703,72.463z"
   style="fill:#003791;fill-opacity:1" />
	</g>
</g>
<g
   id="g12">
</g>
<g
   id="g14">
</g>
<g
   id="g16">
</g>
<g
   id="g18">
</g>
<g
   id="g20">
</g>
<g
   id="g22">
</g>
<g
   id="g24">
</g>
<g
   id="g26">
</g>
<g
   id="g28">
</g>
<g
   id="g30">
</g>
<g
   id="g32">
</g>
<g
   id="g34">
</g>
<g
   id="g36">
</g>
<g
   id="g38">
</g>
<g
   id="g40">
</g>
</svg>
